HIERARCHY
ROOT Pelvis
{
	OFFSET 0.000000 0.000000 0.000000
	CHANNELS 6 Xposition Yposition Zposition Xrotation Yrotation Zrotation
	JOINT LeftUpLeg_virtual
	{
		OFFSET 0.000000 0.000000 0.000000
		CHANNELS 3 Xrotation Yrotation Zrotation
		JOINT LeftUpLeg
		{
			OFFSET 8.479700 -4.795502 -0.379100
			CHANNELS 3 Xrotation Yrotation Zrotation
			JOINT LeftLeg
			{
				OFFSET 0.024144 -32.555107 0.112900
				CHANNELS 3 Xrotation Yrotation Zrotation
				JOINT LeftFoot
				{
					OFFSET -0.024144 -32.638630 -3.012600
					CHANNELS 3 Xrotation Yrotation Zrotation
					JOINT LeftToeBase
					{
						OFFSET 0.970200 -13.225400 11.864200
						CHANNELS 3 Xrotation Yrotation Zrotation
						End Site
						{
							OFFSET 0 0 0
						}
					}
				}
			}
		}
	}
	JOINT RightUpLeg_virtual
	{
		OFFSET 0.000000 0.000000 0.000000
		CHANNELS 3 Xrotation Yrotation Zrotation
		JOINT RightUpLeg
		{
			OFFSET -8.479700 -4.795502 -0.379100
			CHANNELS 3 Xrotation Yrotation Zrotation
			JOINT RightLeg
			{
				OFFSET -0.023144 -32.555092 0.112900
				CHANNELS 3 Xrotation Yrotation Zrotation
				JOINT RightFoot
				{
					OFFSET 0.023144 -32.638641 -3.012700
					CHANNELS 3 Xrotation Yrotation Zrotation
					JOINT RightToeBase
					{
						OFFSET -0.970200 -13.225400 11.864200
						CHANNELS 3 Xrotation Yrotation Zrotation
						End Site
						{
							OFFSET 0 0 0
						}
					}
				}
			}
		}
	}
	JOINT Hips_virtual
	{
		OFFSET 0.000000 0.000000 0.000000
		CHANNELS 3 Xrotation Yrotation Zrotation
		JOINT Hips
		{
			OFFSET -0.000000 -0.000000 -0.000000
			CHANNELS 3 Xrotation Yrotation Zrotation
			JOINT Spine
			{
				OFFSET 0.000000 7.722000 1.166200
				CHANNELS 3 Xrotation Yrotation Zrotation
				JOINT Spine1
				{
					OFFSET 0.000000 12.024101 0.248800
					CHANNELS 3 Xrotation Yrotation Zrotation
					JOINT Spine2
					{
						OFFSET 0.000000 11.502998 -0.491200
						CHANNELS 3 Xrotation Yrotation Zrotation
						JOINT Neck_virtual
						{
							OFFSET 0.000000 0.000000 0.000000
							CHANNELS 3 Xrotation Yrotation Zrotation
							JOINT Neck
							{
								OFFSET 0.000000 18.430702 -3.123100
								CHANNELS 3 Xrotation Yrotation Zrotation
								JOINT Head
								{
									OFFSET 0.000000 9.051102 1.034000
									CHANNELS 3 Xrotation Yrotation Zrotation
									End Site
									{
										OFFSET 0 0 0
									}
								}
							}
						}
						JOINT LeftShoulder_virtual
						{
							OFFSET 0.000000 0.000000 0.000000
							CHANNELS 3 Xrotation Yrotation Zrotation
							JOINT LeftShoulder
							{
								OFFSET 6.197800 13.665199 -4.064700
								CHANNELS 3 Xrotation Yrotation Zrotation
								JOINT LeftArm
								{
									OFFSET 7.778100 -0.187103 -1.709300
									CHANNELS 3 Xrotation Yrotation Zrotation
									JOINT LeftForeArm
									{
										OFFSET 22.049376 0.000000 0.000000
										CHANNELS 3 Xrotation Yrotation Zrotation
										JOINT LeftHand
										{
											OFFSET 23.009392 0.000000 0.000000
											CHANNELS 3 Xrotation Yrotation Zrotation
											End Site
											{
												OFFSET 0 0 0
											}
										}
									}
								}
							}
						}
						JOINT RightShoulder_virtual
						{
							OFFSET 0.000000 0.000000 0.000000
							CHANNELS 3 Xrotation Yrotation Zrotation
							JOINT RightShoulder
							{
								OFFSET -6.197800 13.665199 -4.064700
								CHANNELS 3 Xrotation Yrotation Zrotation
								JOINT RightArm
								{
									OFFSET -7.778100 -0.187103 -1.709300
									CHANNELS 3 Xrotation Yrotation Zrotation
									JOINT RightForeArm
									{
										OFFSET -22.049376 0.000000 0.000000
										CHANNELS 3 Xrotation Yrotation Zrotation
										JOINT RightHand
										{
											OFFSET -23.009392 0.000000 0.000000
											CHANNELS 3 Xrotation Yrotation Zrotation
											End Site
											{
												OFFSET 0 0 0
											}
										}
									}
								}
							}
						}
					}
				}
			}
		}
	}
}
MOTION
Frames: 14
Frame Time: 0.03333333
-1.454607 81.478035 -1.298775 0.000000 0.000000 0.000000 1.168794 6.158149 5.740327 -9.433874 6.242240 0.386524 15.273674 4.889459 0.231088 -4.580139 0.450493 -5.028019 0.000000 0.000000 0.000000 1.168794 6.158149 5.740327 -14.387046 -11.065064 -13.279076 25.666565 -0.673246 -1.950493 -12.210479 -8.208548 6.932534 0.000000 0.000000 0.000000 1.168794 6.158149 5.740327 0.000000 0.000000 0.000000 8.190651 -0.970330 6.580587 1.977284 -0.412824 1.344542 0.000000 0.000000 0.000000 1.971130 -0.404077 1.350294 1.471615 0.251577 3.770396 0.000000 0.000000 0.000000 1.971130 -0.404077 1.350294 0.635352 -5.283651 -12.880634 5.726507 -4.951279 -42.398638 0.000009 -65.564372 -0.000014 0.000000 0.000000 0.000000 1.971130 -0.404077 1.350294 1.688120 19.320710 11.981022 -17.246742 18.683096 60.973126 179.999650 84.868249 -179.999650 0.000000 0.000000 0.000000 
-1.427868 81.473724 -1.250816 0.000000 0.000000 0.000000 1.139339 6.089246 5.748240 -9.344052 6.272485 0.368812 15.299697 4.914135 0.218378 -4.691250 0.451785 -4.968469 0.000000 0.000000 0.000000 1.139339 6.089246 5.748240 -14.252314 -10.771167 -13.218603 25.656313 -0.898260 -1.951854 -12.228228 -8.235705 7.011854 0.000000 0.000000 0.000000 1.139339 6.089246 5.748240 0.000000 0.000000 0.000000 8.156966 -1.120211 6.585690 1.971236 -0.454237 1.335349 0.000000 0.000000 0.000000 1.964733 -0.445019 1.341882 1.502342 0.283006 3.704583 0.000000 0.000000 0.000000 1.964733 -0.445019 1.341882 0.638346 -5.316638 -12.830689 5.804762 -5.004720 -42.414939 0.000011 -65.564284 -0.000004 0.000000 0.000000 0.000000 1.964733 -0.445019 1.341882 1.742141 19.638221 11.894624 -14.648410 20.367938 60.669183 -179.999213 83.209995 179.999226 0.000000 0.000000 0.000000 
-1.401757 81.469078 -1.206367 0.000000 0.000000 0.000000 1.105855 6.013407 5.739069 -9.256175 6.298571 0.380335 15.321643 4.944981 0.203138 -4.778922 0.453576 -4.972134 0.000000 0.000000 0.000000 1.105855 6.013407 5.739069 -14.108730 -10.476714 -13.138799 25.636599 -1.123380 -1.953131 -12.238254 -8.260866 7.087421 0.000000 0.000000 0.000000 1.105855 6.013407 5.739069 0.000000 0.000000 0.000001 8.122613 -1.298589 6.588511 1.966687 -0.503289 1.325315 0.000000 0.000000 0.000000 1.959776 -0.493538 1.332815 1.524708 0.316485 3.633391 0.000000 0.000000 0.000000 1.959776 -0.493538 1.332815 0.638521 -5.362368 -12.762703 5.906807 -5.087486 -42.408819 0.000001 -65.558621 -0.000007 0.000000 0.000000 0.000000 1.959776 -0.493538 1.332815 1.812173 19.996175 11.753377 -12.150135 22.247791 60.206062 -179.999677 81.797376 179.999677 0.000000 0.000000 0.000000 
-1.371363 81.465691 -1.163708 0.000000 0.000000 0.000000 1.079519 5.956230 5.719004 -9.180595 6.325912 0.398789 15.341701 4.952809 0.186359 -4.868901 0.455098 -4.964354 0.000000 0.000000 0.000000 1.079519 5.956230 5.719004 -13.957936 -10.180022 -13.048359 25.596265 -1.374365 -1.954363 -12.236566 -8.285206 7.171094 0.000000 0.000000 0.000000 1.079519 5.956230 5.719004 0.000000 0.000000 0.000000 8.092418 -1.500267 6.584872 1.963648 -0.558698 1.313115 0.000000 0.000000 0.000000 1.956315 -0.548352 1.321720 1.539980 0.351073 3.559215 0.000000 0.000000 0.000000 1.956315 -0.548352 1.321720 0.637409 -5.414065 -12.664164 6.031516 -5.194023 -42.395240 -0.000018 -65.552071 -0.000014 0.000000 0.000000 0.000000 1.956315 -0.548352 1.321720 1.891718 20.393154 11.594518 -9.757496 24.346231 59.504096 -179.999240 80.683078 179.999254 0.000000 0.000000 0.000000 
-1.331494 81.463585 -1.126341 0.000000 0.000000 0.000000 1.031201 5.894408 5.701792 -9.080468 6.358123 0.402526 15.361229 4.968143 0.169778 -4.974327 0.456337 -4.918540 0.000000 0.000000 0.000000 1.031201 5.894408 5.701792 -13.784688 -9.879507 -12.966878 25.545510 -1.624947 -1.955498 -12.223141 -8.308748 7.262725 0.000000 0.000000 0.000000 1.031201 5.894408 5.701792 0.000000 0.000000 0.000000 8.067457 -1.720261 6.573672 1.960708 -0.619253 1.297406 0.000000 0.000000 0.000000 1.952975 -0.608264 1.307199 1.554706 0.385658 3.484317 0.000000 0.000000 0.000000 1.952975 -0.608264 1.307199 0.638616 -5.466736 -12.525826 6.178439 -5.316451 -42.390975 0.000016 -65.547167 0.000017 0.000000 0.000000 0.000000 1.952975 -0.608264 1.307199 1.973433 20.822764 11.448877 -7.453075 26.678272 58.482996 -179.999486 79.886248 179.999500 0.000000 0.000000 0.000000 
-1.284541 81.462578 -1.094660 0.000000 0.000000 0.000000 0.948855 5.810915 5.686574 -8.943461 6.393594 0.399727 15.381617 5.012807 0.155217 -5.081890 0.456973 -4.868251 0.000000 0.000000 0.000000 0.948855 5.810915 5.686574 -13.580609 -9.578510 -12.891748 25.486168 -1.856263 -1.956506 -12.199352 -8.330920 7.355675 0.000000 0.000000 0.000000 0.948855 5.810915 5.686574 0.000000 0.000001 0.000000 8.044026 -1.946475 6.551821 1.956564 -0.681586 1.278523 0.000000 0.000000 0.000000 1.948485 -0.669981 1.289518 1.574148 0.418255 3.409740 0.000000 0.000000 0.000000 1.948485 -0.669981 1.289518 0.642403 -5.522238 -12.356910 6.344976 -5.446050 -42.394055 -0.000024 -65.552249 -0.000032 0.000000 0.000000 0.000000 1.948485 -0.669981 1.289518 2.052484 21.276526 11.328168 -5.200938 29.230802 57.085543 179.999827 79.390595 -179.999827 0.000000 0.000000 0.000000 
-1.240951 81.463875 -1.059269 0.000000 0.000000 0.000000 0.881501 5.742109 5.648017 -8.832734 6.426925 0.431719 15.407445 5.038361 0.143384 -5.166043 0.457910 -4.863287 0.000000 0.000000 0.000000 0.881501 5.742109 5.648017 -13.365338 -9.284659 -12.785904 25.392126 -2.106630 -1.957517 -12.163301 -8.351297 7.446465 0.000000 0.000000 0.000000 0.881501 5.742109 5.648017 0.000000 0.000000 0.000000 8.018154 -2.155873 6.514241 1.949552 -0.739109 1.258280 0.000000 0.000000 0.000000 1.941189 -0.727064 1.270343 1.601422 0.445810 3.335897 0.000000 0.000000 0.000000 1.941189 -0.727064 1.270343 0.646575 -5.587139 -12.181943 6.521553 -5.578316 -42.384954 0.000001 -65.581632 0.000007 0.000000 0.000000 0.000000 1.941189 -0.727064 1.270343 2.127743 21.749844 11.226046 -2.955928 31.958233 55.283951 179.999609 79.162077 -179.999595 0.000000 0.000000 0.000000 
-1.180252 81.468239 -1.027382 0.000000 0.000000 0.000000 0.814267 5.569730 5.605161 -8.686147 6.470340 0.439200 15.417950 5.140520 0.133200 -5.293277 0.458198 -4.799191 0.000000 0.000000 0.000000 0.814267 5.569730 5.605161 -13.163839 -8.982039 -12.693352 25.274377 -2.256436 -1.958221 -12.097634 -8.367931 7.527621 0.000000 0.000000 0.000000 0.814267 5.569730 5.605161 0.000000 0.000001 0.000000 7.991219 -2.323082 6.453854 1.939363 -0.784637 1.237830 0.000000 0.000000 0.000000 1.930844 -0.772449 1.250739 1.633279 0.465427 3.263989 0.000000 0.000000 0.000000 1.930844 -0.772449 1.250739 0.650623 -5.663806 -12.020155 6.690368 -5.717656 -42.349096 0.000002 -65.646437 0.000004 0.000000 0.000000 0.000000 1.930844 -0.772449 1.250739 2.199100 22.248658 11.134860 -0.675739 34.789732 53.073220 179.999677 79.172384 -179.999677 0.000000 0.000000 0.000000 
-1.120734 81.472397 -0.998987 0.000000 0.000000 0.000000 0.720928 5.375403 5.557791 -8.515256 6.518923 0.464367 15.432799 5.271908 0.122773 -5.406124 0.459507 -4.775724 0.000000 0.000000 0.000000 0.720928 5.375403 5.557791 -12.941760 -8.683456 -12.594710 25.155962 -2.384442 -1.958841 -12.029599 -8.383022 7.602112 0.000000 0.000000 0.000000 0.720928 5.375403 5.557791 0.000000 0.000000 0.000000 7.968752 -2.434583 6.366570 1.926871 -0.814443 1.216385 0.000000 0.000000 0.000000 1.918326 -0.802435 1.229826 1.663243 0.476228 3.195925 0.000000 0.000000 0.000000 1.918326 -0.802435 1.229826 0.654073 -5.745022 -11.870239 6.829699 -5.875782 -42.297169 -0.000025 -65.743118 -0.000039 0.000000 0.000000 0.000000 1.918326 -0.802435 1.229826 2.264672 22.787447 11.057732 1.670494 37.648324 50.461137 179.999582 79.409999 -179.999595 0.000000 0.000000 0.000000 
-1.056819 81.477203 -0.972572 0.000000 0.000000 0.000000 0.618970 5.126987 5.498637 -8.328055 6.574779 0.498023 15.455313 5.451965 0.110831 -5.537777 0.461513 -4.745837 0.000000 0.000000 0.000000 0.618970 5.126987 5.498637 -12.716914 -8.386660 -12.489735 25.024816 -2.458199 -1.959283 -11.948492 -8.395519 7.666291 0.000000 0.000000 0.000000 0.618970 5.126987 5.498637 0.000000 0.000000 0.000000 7.952934 -2.492399 6.252297 1.913153 -0.829057 1.192537 0.000000 0.000000 0.000000 1.904708 -0.817493 1.206201 1.686470 0.479706 3.132298 0.000000 0.000000 0.000000 1.904708 -0.817493 1.206201 0.657166 -5.821997 -11.717779 6.920508 -6.063886 -42.259125 0.000031 -65.853378 0.000032 0.000000 0.000000 0.000000 1.904708 -0.817493 1.206201 2.322803 23.374803 10.999074 4.103770 40.476411 47.464112 -179.999991 79.872007 -179.999991 0.000000 0.000000 0.000000 
-0.986656 81.483170 -0.947140 0.000000 0.000000 0.000000 0.514632 4.828592 5.427200 -8.127169 6.636377 0.533622 15.481206 5.670309 0.097792 -5.698937 0.461651 -4.685395 0.000000 0.000000 0.000000 0.514632 4.828592 5.427200 -12.492601 -8.091515 -12.380440 24.876556 -2.481011 -1.959602 -11.852395 -8.405569 7.722095 0.000000 0.000000 0.000000 0.514632 4.828592 5.427200 0.000000 0.000000 0.000000 7.938457 -2.506933 6.113967 1.898660 -0.831235 1.165687 0.000000 0.000000 0.000000 1.890433 -0.820288 1.179327 1.702744 0.478172 3.072005 0.000000 0.000000 0.000000 1.890433 -0.820288 1.179327 0.660609 -5.893532 -11.550302 6.955302 -6.285246 -42.258777 -0.000004 -65.958099 -0.000011 0.000000 0.000000 0.000000 1.890433 -0.820288 1.179327 2.374775 24.004273 10.953896 6.640395 43.240852 44.109167 -179.999623 80.543933 179.999609 0.000000 0.000000 0.000000 
-0.912593 81.489075 -0.924736 0.000000 0.000000 0.000000 0.416100 4.505854 5.349371 -7.930431 6.700049 0.569536 15.511134 5.908949 0.085726 -5.869377 0.460922 -4.619638 0.000000 0.000000 0.000000 0.416100 4.505854 5.349371 -12.281565 -7.795247 -12.271709 24.724382 -2.478555 -1.959798 -11.748224 -8.414247 7.774294 0.000000 0.000000 0.000000 0.416100 4.505854 5.349371 0.000000 0.000000 0.000000 7.916660 -2.489351 5.956458 1.883023 -0.823975 1.135800 0.000000 0.000000 0.000000 1.875097 -0.813743 1.149205 1.715573 0.472866 3.014256 0.000000 0.000000 0.000000 1.875097 -0.813743 1.149205 0.665639 -5.966995 -11.365191 6.945156 -6.534072 -42.291292 0.000026 -66.052970 0.000048 0.000000 0.000000 0.000000 1.875097 -0.813743 1.149205 2.423406 24.662401 10.912730 9.286772 45.912211 40.444050 179.999390 81.392181 -179.999404 0.000000 0.000000 0.000000 
-0.837647 81.492485 -0.910278 0.000000 0.000000 0.000000 0.343022 4.173057 5.271920 -7.775037 6.762841 0.605636 15.556383 6.170020 0.077561 -6.016719 0.460497 -4.604174 0.000000 0.000000 0.000000 0.343022 4.173057 5.271920 -12.120294 -7.490203 -12.170033 24.595306 -2.466619 -1.959398 -11.645245 -8.422428 7.824646 0.000000 0.000000 0.000000 0.343022 4.173057 5.271920 0.000000 0.000000 0.000000 7.883184 -2.447889 5.785487 1.865523 -0.809645 1.102690 0.000000 0.000000 0.000000 1.857969 -0.800170 1.115704 1.728705 0.463195 2.960009 0.000000 0.000000 0.000000 1.857969 -0.800170 1.115704 0.671563 -6.052865 -11.170691 6.914398 -6.803191 -42.323619 -0.000008 -66.147377 -0.000016 0.000000 0.000000 0.000000 1.857969 -0.800170 1.115704 2.470280 25.340499 10.870689 12.017963 48.445357 36.554513 179.999882 82.373755 -179.999882 0.000000 0.000000 0.000000 
-0.757802 81.501183 -0.891161 0.000000 0.000000 0.000000 0.233693 3.827289 5.172133 -7.570760 6.821899 0.643140 15.595255 6.435714 0.075979 -6.214134 0.458767 -4.497635 0.000000 0.000000 0.000000 0.233693 3.827289 5.172133 -11.888696 -7.207934 -12.047310 24.404059 -2.433443 -1.958617 -11.516675 -8.428317 7.872228 0.000000 0.000000 0.000000 0.233693 3.827289 5.172133 0.000000 0.000000 0.000000 7.842018 -2.387214 5.607069 1.845916 -0.789898 1.066024 0.000000 0.000000 0.000000 1.838790 -0.781198 1.078509 1.743013 0.447379 2.911435 0.000000 0.000000 0.000000 1.838790 -0.781198 1.078509 0.677449 -6.158777 -10.978643 6.883460 -7.092810 -42.323264 0.000007 -66.245588 -0.000013 0.000000 0.000000 0.000000 1.838790 -0.781198 1.078509 2.515116 26.035856 10.828765 14.759769 50.785110 32.572540 -179.999445 83.453567 179.999472 0.000000 0.000000 0.000000 
